<svg width="364" height="267" viewBox="0 0 364 267" fill="none" xmlns="http://www.w3.org/2000/svg">
<path d="M36.432 75.944C35.616 74.6 34.488 73.568 33.048 72.848C31.656 72.128 30 71.768 28.08 71.768C24.528 71.768 21.72 72.92 19.656 75.224C17.64 77.528 16.632 80.624 16.632 84.512C16.632 88.88 17.712 92.216 19.872 94.52C22.08 96.776 25.272 97.904 29.448 97.904C34.392 97.904 37.92 95.672 40.032 91.208H25.848V81.056H52.2V94.736C51.096 97.424 49.464 99.944 47.304 102.296C45.192 104.648 42.504 106.592 39.24 108.128C35.976 109.616 32.256 110.36 28.08 110.36C22.992 110.36 18.48 109.28 14.544 107.12C10.656 104.912 7.632 101.864 5.472 97.976C3.36 94.04 2.304 89.552 2.304 84.512C2.304 79.52 3.36 75.08 5.472 71.192C7.632 67.256 10.656 64.208 14.544 62.048C18.432 59.84 22.92 58.736 28.008 58.736C34.392 58.736 39.672 60.272 43.848 63.344C48.024 66.416 50.616 70.616 51.624 75.944H36.432ZM56.2202 89.768C56.2202 85.592 56.9642 81.944 58.4522 78.824C59.9882 75.704 62.0522 73.304 64.6442 71.624C67.2842 69.944 70.2122 69.104 73.4282 69.104C76.2122 69.104 78.6122 69.656 80.6282 70.76C82.6442 71.864 84.2042 73.352 85.3082 75.224V69.608H99.4202V110H85.3082V104.384C84.2042 106.256 82.6202 107.744 80.5562 108.848C78.5402 109.952 76.1642 110.504 73.4282 110.504C70.2122 110.504 67.2842 109.664 64.6442 107.984C62.0522 106.304 59.9882 103.904 58.4522 100.784C56.9642 97.616 56.2202 93.944 56.2202 89.768ZM85.3082 89.768C85.3082 87.176 84.5882 85.136 83.1482 83.648C81.7562 82.16 80.0282 81.416 77.9642 81.416C75.8522 81.416 74.1002 82.16 72.7082 83.648C71.3162 85.088 70.6202 87.128 70.6202 89.768C70.6202 92.36 71.3162 94.424 72.7082 95.96C74.1002 97.448 75.8522 98.192 77.9642 98.192C80.0282 98.192 81.7562 97.448 83.1482 95.96C84.5882 94.472 85.3082 92.408 85.3082 89.768ZM133.886 69.248C138.542 69.248 142.238 70.808 144.974 73.928C147.71 77 149.078 81.176 149.078 86.456V110H134.966V88.328C134.966 86.024 134.366 84.224 133.166 82.928C131.966 81.584 130.358 80.912 128.342 80.912C126.23 80.912 124.574 81.584 123.374 82.928C122.174 84.224 121.574 86.024 121.574 88.328V110H107.462V69.608H121.574V75.368C122.822 73.544 124.502 72.08 126.614 70.976C128.726 69.824 131.15 69.248 133.886 69.248ZM180.653 97.976V110H174.533C164.213 110 159.053 104.888 159.053 94.664V81.344H154.085V69.608H159.053V59.816H173.237V69.608H180.581V81.344H173.237V94.88C173.237 95.984 173.477 96.776 173.957 97.256C174.485 97.736 175.349 97.976 176.549 97.976H180.653ZM213.55 69.248C218.206 69.248 221.902 70.808 224.638 73.928C227.374 77 228.742 81.176 228.742 86.456V110H214.63V88.328C214.63 86.024 214.03 84.224 212.83 82.928C211.63 81.584 210.022 80.912 208.006 80.912C205.894 80.912 204.238 81.584 203.038 82.928C201.838 84.224 201.238 86.024 201.238 88.328V110H187.126V69.608H201.238V75.368C202.486 73.544 204.166 72.08 206.278 70.976C208.39 69.824 210.814 69.248 213.55 69.248ZM275.077 89.336C275.077 90.44 275.005 91.544 274.861 92.648H248.149C248.293 94.856 248.893 96.512 249.949 97.616C251.053 98.672 252.445 99.2 254.125 99.2C256.477 99.2 258.157 98.144 259.165 96.032H274.213C273.589 98.816 272.365 101.312 270.541 103.52C268.765 105.68 266.509 107.384 263.773 108.632C261.037 109.88 258.013 110.504 254.701 110.504C250.717 110.504 247.165 109.664 244.045 107.984C240.973 106.304 238.549 103.904 236.773 100.784C235.045 97.664 234.181 93.992 234.181 89.768C234.181 85.544 235.045 81.896 236.773 78.824C238.501 75.704 240.901 73.304 243.973 71.624C247.093 69.944 250.669 69.104 254.701 69.104C258.685 69.104 262.213 69.92 265.285 71.552C268.357 73.184 270.757 75.536 272.485 78.608C274.213 81.632 275.077 85.208 275.077 89.336ZM260.677 85.808C260.677 84.08 260.101 82.736 258.949 81.776C257.797 80.768 256.357 80.264 254.629 80.264C252.901 80.264 251.485 80.744 250.381 81.704C249.277 82.616 248.557 83.984 248.221 85.808H260.677ZM294.964 76.736C296.548 74.432 298.468 72.608 300.724 71.264C302.98 69.92 305.404 69.248 307.996 69.248V84.296H304.036C300.964 84.296 298.684 84.896 297.196 86.096C295.708 87.296 294.964 89.384 294.964 92.36V110H280.852V69.608H294.964V76.736ZM330.263 110.504C326.615 110.504 323.351 109.904 320.471 108.704C317.639 107.456 315.383 105.776 313.703 103.664C312.071 101.504 311.159 99.08 310.967 96.392H324.647C324.839 97.688 325.439 98.696 326.447 99.416C327.455 100.136 328.703 100.496 330.191 100.496C331.343 100.496 332.255 100.256 332.927 99.776C333.599 99.296 333.935 98.672 333.935 97.904C333.935 96.896 333.383 96.152 332.279 95.672C331.175 95.192 329.351 94.664 326.807 94.088C323.927 93.512 321.527 92.864 319.607 92.144C317.687 91.424 316.007 90.248 314.567 88.616C313.175 86.984 312.479 84.776 312.479 81.992C312.479 79.592 313.127 77.432 314.423 75.512C315.719 73.544 317.615 71.984 320.111 70.832C322.655 69.68 325.703 69.104 329.255 69.104C334.535 69.104 338.687 70.4 341.711 72.992C344.735 75.584 346.487 78.992 346.967 83.216H334.223C333.983 81.92 333.407 80.936 332.495 80.264C331.631 79.544 330.455 79.184 328.967 79.184C327.815 79.184 326.927 79.4 326.303 79.832C325.727 80.264 325.439 80.864 325.439 81.632C325.439 82.592 325.991 83.336 327.095 83.864C328.199 84.344 329.975 84.848 332.423 85.376C335.351 86 337.775 86.696 339.695 87.464C341.663 88.232 343.367 89.48 344.807 91.208C346.295 92.888 347.039 95.192 347.039 98.12C347.039 100.472 346.343 102.584 344.951 104.456C343.607 106.328 341.663 107.816 339.119 108.92C336.623 109.976 333.671 110.504 330.263 110.504ZM36.144 170.72H18.144L15.408 179H0.576L19.08 128.24H35.352L53.784 179H38.88L36.144 170.72ZM32.616 159.92L27.144 143.504L21.744 159.92H32.616ZM72.4956 125.72V179H58.3836V125.72H72.4956ZM94.644 144.224C95.748 142.304 97.308 140.816 99.324 139.76C101.34 138.656 103.716 138.104 106.452 138.104C109.668 138.104 112.572 138.944 115.164 140.624C117.804 142.304 119.868 144.704 121.356 147.824C122.892 150.944 123.66 154.592 123.66 158.768C123.66 162.944 122.892 166.616 121.356 169.784C119.868 172.904 117.804 175.304 115.164 176.984C112.572 178.664 109.668 179.504 106.452 179.504C103.716 179.504 101.34 178.976 99.324 177.92C97.308 176.816 95.748 175.304 94.644 173.384V179H80.532V125.72H94.644V144.224ZM109.332 158.768C109.332 156.128 108.612 154.088 107.172 152.648C105.78 151.16 104.052 150.416 101.988 150.416C99.924 150.416 98.172 151.16 96.732 152.648C95.34 154.136 94.644 156.176 94.644 158.768C94.644 161.408 95.34 163.472 96.732 164.96C98.172 166.448 99.924 167.192 101.988 167.192C104.052 167.192 105.78 166.448 107.172 164.96C108.612 163.424 109.332 161.36 109.332 158.768ZM153.302 166.976V179H147.182C136.862 179 131.702 173.888 131.702 163.664V150.344H126.734V138.608H131.702V128.816H145.886V138.608H153.23V150.344H145.886V163.88C145.886 164.984 146.126 165.776 146.605 166.256C147.134 166.736 147.998 166.976 149.198 166.976H153.302ZM173.886 145.736C175.47 143.432 177.39 141.608 179.646 140.264C181.902 138.92 184.326 138.248 186.918 138.248V153.296H182.958C179.886 153.296 177.606 153.896 176.118 155.096C174.63 156.296 173.886 158.384 173.886 161.36V179H159.774V138.608H173.886V145.736ZM189.673 158.768C189.673 154.592 190.417 150.944 191.905 147.824C193.441 144.704 195.505 142.304 198.097 140.624C200.737 138.944 203.665 138.104 206.881 138.104C209.665 138.104 212.065 138.656 214.081 139.76C216.097 140.864 217.657 142.352 218.761 144.224V138.608H232.873V179H218.761V173.384C217.657 175.256 216.073 176.744 214.009 177.848C211.993 178.952 209.617 179.504 206.881 179.504C203.665 179.504 200.737 178.664 198.097 176.984C195.505 175.304 193.441 172.904 191.905 169.784C190.417 166.616 189.673 162.944 189.673 158.768ZM218.761 158.768C218.761 156.176 218.041 154.136 216.601 152.648C215.209 151.16 213.481 150.416 211.417 150.416C209.305 150.416 207.553 151.16 206.161 152.648C204.769 154.088 204.073 156.128 204.073 158.768C204.073 161.36 204.769 163.424 206.161 164.96C207.553 166.448 209.305 167.192 211.417 167.192C213.481 167.192 215.209 166.448 216.601 164.96C218.041 163.472 218.761 161.408 218.761 158.768ZM282.243 138.608V179H268.059V173.24C266.859 175.064 265.203 176.552 263.091 177.704C260.979 178.808 258.555 179.36 255.819 179.36C251.115 179.36 247.395 177.824 244.659 174.752C241.971 171.632 240.627 167.408 240.627 162.08V138.608H254.667V160.28C254.667 162.584 255.267 164.408 256.467 165.752C257.715 167.048 259.347 167.696 261.363 167.696C263.427 167.696 265.059 167.048 266.259 165.752C267.459 164.408 268.059 162.584 268.059 160.28V138.608H282.243ZM343.05 138.248C348.138 138.248 352.122 139.784 355.002 142.856C357.93 145.928 359.394 150.128 359.394 155.456V179H345.282V157.328C345.282 155.168 344.682 153.488 343.482 152.288C342.282 151.088 340.65 150.488 338.586 150.488C336.522 150.488 334.89 151.088 333.69 152.288C332.49 153.488 331.89 155.168 331.89 157.328V179H317.778V157.328C317.778 155.168 317.178 153.488 315.978 152.288C314.826 151.088 313.218 150.488 311.154 150.488C309.042 150.488 307.386 151.088 306.186 152.288C304.986 153.488 304.386 155.168 304.386 157.328V179H290.274V138.608H304.386V143.936C305.634 142.208 307.242 140.84 309.21 139.832C311.226 138.776 313.53 138.248 316.122 138.248C319.098 138.248 321.738 138.896 324.042 140.192C326.394 141.488 328.242 143.312 329.586 145.664C331.026 143.456 332.922 141.68 335.274 140.336C337.626 138.944 340.218 138.248 343.05 138.248Z" fill="white"/>
<path d="M31.008 219.396V245H27.641V225.908L19.131 245H16.763L8.216 225.871V245H4.849V219.396H8.475L17.947 240.56L27.419 219.396H31.008ZM36.5701 234.788C36.5701 232.716 36.9895 230.903 37.8281 229.349C38.6668 227.77 39.8138 226.549 41.2691 225.686C42.7491 224.823 44.3895 224.391 46.1901 224.391C47.9661 224.391 49.5078 224.773 50.8151 225.538C52.1225 226.303 53.0968 227.265 53.7381 228.424V224.724H57.1421V245H53.7381V241.226C53.0721 242.41 52.0731 243.397 50.7411 244.186C49.4338 244.951 47.9045 245.333 46.1531 245.333C44.3525 245.333 42.7245 244.889 41.2691 244.001C39.8138 243.113 38.6668 241.867 37.8281 240.264C36.9895 238.661 36.5701 236.835 36.5701 234.788ZM53.7381 234.825C53.7381 233.296 53.4298 231.964 52.8131 230.829C52.1965 229.694 51.3578 228.831 50.2971 228.239C49.2611 227.622 48.1141 227.314 46.8561 227.314C45.5981 227.314 44.4511 227.61 43.4151 228.202C42.3791 228.794 41.5528 229.657 40.9361 230.792C40.3195 231.927 40.0111 233.259 40.0111 234.788C40.0111 236.342 40.3195 237.699 40.9361 238.858C41.5528 239.993 42.3791 240.868 43.4151 241.485C44.4511 242.077 45.5981 242.373 46.8561 242.373C48.1141 242.373 49.2611 242.077 50.2971 241.485C51.3578 240.868 52.1965 239.993 52.8131 238.858C53.4298 237.699 53.7381 236.354 53.7381 234.825ZM68.049 227.499V239.45C68.049 240.437 68.2587 241.14 68.678 241.559C69.0974 241.954 69.825 242.151 70.861 242.151H73.34V245H70.306C68.4314 245 67.0254 244.568 66.088 243.705C65.1507 242.842 64.682 241.423 64.682 239.45V227.499H62.055V224.724H64.682V219.618H68.049V224.724H73.34V227.499H68.049ZM96.5116 224.724V245H93.1446V242.003C92.5033 243.039 91.6029 243.853 90.4436 244.445C89.3089 245.012 88.0509 245.296 86.6696 245.296C85.0909 245.296 83.6726 244.975 82.4146 244.334C81.1566 243.668 80.1576 242.681 79.4176 241.374C78.7023 240.067 78.3446 238.476 78.3446 236.601V224.724H81.6746V236.157C81.6746 238.155 82.1803 239.697 83.1916 240.782C84.2029 241.843 85.5843 242.373 87.3356 242.373C89.1363 242.373 90.5546 241.818 91.5906 240.708C92.6266 239.598 93.1446 237.982 93.1446 235.861V224.724H96.5116ZM106.674 228.017C107.266 226.858 108.104 225.957 109.19 225.316C110.3 224.675 111.644 224.354 113.223 224.354V227.832H112.335C108.561 227.832 106.674 229.879 106.674 233.974V245H103.307V224.724H106.674V228.017ZM116.961 234.788C116.961 232.716 117.381 230.903 118.219 229.349C119.058 227.77 120.205 226.549 121.66 225.686C123.14 224.823 124.781 224.391 126.581 224.391C128.357 224.391 129.899 224.773 131.206 225.538C132.514 226.303 133.488 227.265 134.129 228.424V224.724H137.533V245H134.129V241.226C133.463 242.41 132.464 243.397 131.132 244.186C129.825 244.951 128.296 245.333 126.544 245.333C124.744 245.333 123.116 244.889 121.66 244.001C120.205 243.113 119.058 241.867 118.219 240.264C117.381 238.661 116.961 236.835 116.961 234.788ZM134.129 234.825C134.129 233.296 133.821 231.964 133.204 230.829C132.588 229.694 131.749 228.831 130.688 228.239C129.652 227.622 128.505 227.314 127.247 227.314C125.989 227.314 124.842 227.61 123.806 228.202C122.77 228.794 121.944 229.657 121.327 230.792C120.711 231.927 120.402 233.259 120.402 234.788C120.402 236.342 120.711 237.699 121.327 238.858C121.944 239.993 122.77 240.868 123.806 241.485C124.842 242.077 125.989 242.373 127.247 242.373C128.505 242.373 129.652 242.077 130.688 241.485C131.749 240.868 132.588 239.993 133.204 238.858C133.821 237.699 134.129 236.354 134.129 234.825ZM151.881 241.892L158.171 224.724H161.76L153.805 245H149.883L141.928 224.724H145.554L151.881 241.892ZM167.922 221.431C167.281 221.431 166.738 221.209 166.294 220.765C165.85 220.321 165.628 219.778 165.628 219.137C165.628 218.496 165.85 217.953 166.294 217.509C166.738 217.065 167.281 216.843 167.922 216.843C168.539 216.843 169.057 217.065 169.476 217.509C169.92 217.953 170.142 218.496 170.142 219.137C170.142 219.778 169.92 220.321 169.476 220.765C169.057 221.209 168.539 221.431 167.922 221.431ZM169.55 224.724V245H166.183V224.724H169.55ZM175.141 234.788C175.141 232.716 175.56 230.903 176.399 229.349C177.238 227.77 178.385 226.549 179.84 225.686C181.32 224.823 182.973 224.391 184.798 224.391C186.377 224.391 187.844 224.761 189.201 225.501C190.558 226.216 191.594 227.166 192.309 228.35V217.62H195.713V245H192.309V241.189C191.643 242.398 190.656 243.397 189.349 244.186C188.042 244.951 186.512 245.333 184.761 245.333C182.96 245.333 181.32 244.889 179.84 244.001C178.385 243.113 177.238 241.867 176.399 240.264C175.56 238.661 175.141 236.835 175.141 234.788ZM192.309 234.825C192.309 233.296 192.001 231.964 191.384 230.829C190.767 229.694 189.929 228.831 188.868 228.239C187.832 227.622 186.685 227.314 185.427 227.314C184.169 227.314 183.022 227.61 181.986 228.202C180.95 228.794 180.124 229.657 179.507 230.792C178.89 231.927 178.582 233.259 178.582 234.788C178.582 236.342 178.89 237.699 179.507 238.858C180.124 239.993 180.95 240.868 181.986 241.485C183.022 242.077 184.169 242.373 185.427 242.373C186.685 242.373 187.832 242.077 188.868 241.485C189.929 240.868 190.767 239.993 191.384 238.858C192.001 237.699 192.309 236.354 192.309 234.825ZM221.013 234.085C221.013 234.726 220.976 235.405 220.902 236.12H204.696C204.819 238.118 205.498 239.684 206.731 240.819C207.989 241.929 209.506 242.484 211.282 242.484C212.737 242.484 213.946 242.151 214.908 241.485C215.895 240.794 216.585 239.882 216.98 238.747H220.606C220.063 240.696 218.978 242.287 217.35 243.52C215.722 244.729 213.699 245.333 211.282 245.333C209.358 245.333 207.631 244.901 206.102 244.038C204.597 243.175 203.413 241.954 202.55 240.375C201.687 238.772 201.255 236.922 201.255 234.825C201.255 232.728 201.674 230.891 202.513 229.312C203.352 227.733 204.523 226.525 206.028 225.686C207.557 224.823 209.309 224.391 211.282 224.391C213.206 224.391 214.908 224.81 216.388 225.649C217.868 226.488 219.003 227.647 219.792 229.127C220.606 230.582 221.013 232.235 221.013 234.085ZM217.535 233.382C217.535 232.099 217.251 231.002 216.684 230.089C216.117 229.152 215.34 228.449 214.353 227.98C213.391 227.487 212.318 227.24 211.134 227.24C209.432 227.24 207.977 227.783 206.768 228.868C205.584 229.953 204.906 231.458 204.733 233.382H217.535ZM235.41 245.333C233.511 245.333 231.784 244.901 230.23 244.038C228.701 243.175 227.492 241.954 226.604 240.375C225.741 238.772 225.309 236.922 225.309 234.825C225.309 232.753 225.753 230.928 226.641 229.349C227.554 227.746 228.787 226.525 230.341 225.686C231.895 224.823 233.634 224.391 235.558 224.391C237.482 224.391 239.221 224.823 240.775 225.686C242.329 226.525 243.55 227.733 244.438 229.312C245.351 230.891 245.807 232.728 245.807 234.825C245.807 236.922 245.339 238.772 244.401 240.375C243.489 241.954 242.243 243.175 240.664 244.038C239.086 244.901 237.334 245.333 235.41 245.333ZM235.41 242.373C236.619 242.373 237.754 242.089 238.814 241.522C239.875 240.955 240.726 240.104 241.367 238.969C242.033 237.834 242.366 236.453 242.366 234.825C242.366 233.197 242.046 231.816 241.404 230.681C240.763 229.546 239.924 228.708 238.888 228.165C237.852 227.598 236.73 227.314 235.521 227.314C234.288 227.314 233.153 227.598 232.117 228.165C231.106 228.708 230.292 229.546 229.675 230.681C229.059 231.816 228.75 233.197 228.75 234.825C228.75 236.478 229.046 237.871 229.638 239.006C230.255 240.141 231.069 240.992 232.08 241.559C233.092 242.102 234.202 242.373 235.41 242.373ZM278.82 221.172H265.833V229.608C266.401 228.819 267.239 228.177 268.349 227.684C269.459 227.166 270.656 226.907 271.938 226.907C273.986 226.907 275.651 227.339 276.933 228.202C278.216 229.041 279.129 230.138 279.671 231.495C280.239 232.827 280.522 234.245 280.522 235.75C280.522 237.526 280.189 239.117 279.523 240.523C278.857 241.929 277.834 243.039 276.452 243.853C275.096 244.667 273.406 245.074 271.383 245.074C268.793 245.074 266.697 244.408 265.093 243.076C263.49 241.744 262.516 239.968 262.17 237.748H265.463C265.784 239.154 266.462 240.252 267.498 241.041C268.534 241.83 269.842 242.225 271.42 242.225C273.369 242.225 274.837 241.645 275.823 240.486C276.81 239.302 277.303 237.748 277.303 235.824C277.303 233.9 276.81 232.42 275.823 231.384C274.837 230.323 273.381 229.793 271.457 229.793C270.15 229.793 269.003 230.114 268.016 230.755C267.054 231.372 266.351 232.223 265.907 233.308H262.725V218.212H278.82V221.172ZM285.404 234.788C285.404 232.716 285.823 230.903 286.662 229.349C287.5 227.77 288.647 226.549 290.103 225.686C291.583 224.823 293.223 224.391 295.024 224.391C296.8 224.391 298.341 224.773 299.649 225.538C300.956 226.303 301.93 227.265 302.572 228.424V224.724H305.976V245H302.572V241.226C301.906 242.41 300.907 243.397 299.575 244.186C298.267 244.951 296.738 245.333 294.987 245.333C293.186 245.333 291.558 244.889 290.103 244.001C288.647 243.113 287.5 241.867 286.662 240.264C285.823 238.661 285.404 236.835 285.404 234.788ZM302.572 234.825C302.572 233.296 302.263 231.964 301.647 230.829C301.03 229.694 300.191 228.831 299.131 228.239C298.095 227.622 296.948 227.314 295.69 227.314C294.432 227.314 293.285 227.61 292.249 228.202C291.213 228.794 290.386 229.657 289.77 230.792C289.153 231.927 288.845 233.259 288.845 234.788C288.845 236.342 289.153 237.699 289.77 238.858C290.386 239.993 291.213 240.868 292.249 241.485C293.285 242.077 294.432 242.373 295.69 242.373C296.948 242.373 298.095 242.077 299.131 241.485C300.191 240.868 301.03 239.993 301.647 238.858C302.263 237.699 302.572 236.354 302.572 234.825ZM311.518 234.788C311.518 232.716 311.937 230.903 312.776 229.349C313.614 227.77 314.761 226.549 316.217 225.686C317.697 224.823 319.349 224.391 321.175 224.391C322.753 224.391 324.221 224.761 325.578 225.501C326.934 226.216 327.97 227.166 328.686 228.35V217.62H332.09V245H328.686V241.189C328.02 242.398 327.033 243.397 325.726 244.186C324.418 244.951 322.889 245.333 321.138 245.333C319.337 245.333 317.697 244.889 316.217 244.001C314.761 243.113 313.614 241.867 312.776 240.264C311.937 238.661 311.518 236.835 311.518 234.788ZM328.686 234.825C328.686 233.296 328.377 231.964 327.761 230.829C327.144 229.694 326.305 228.831 325.245 228.239C324.209 227.622 323.062 227.314 321.804 227.314C320.546 227.314 319.399 227.61 318.363 228.202C317.327 228.794 316.5 229.657 315.884 230.792C315.267 231.927 314.959 233.259 314.959 234.788C314.959 236.342 315.267 237.699 315.884 238.858C316.5 239.993 317.327 240.868 318.363 241.485C319.399 242.077 320.546 242.373 321.804 242.373C323.062 242.373 324.209 242.077 325.245 241.485C326.305 240.868 327.144 239.993 327.761 238.858C328.377 237.699 328.686 236.354 328.686 234.825ZM342.257 228.498C342.947 227.289 343.959 226.303 345.291 225.538C346.623 224.773 348.14 224.391 349.842 224.391C351.667 224.391 353.307 224.823 354.763 225.686C356.218 226.549 357.365 227.77 358.204 229.349C359.042 230.903 359.462 232.716 359.462 234.788C359.462 236.835 359.042 238.661 358.204 240.264C357.365 241.867 356.206 243.113 354.726 244.001C353.27 244.889 351.642 245.333 349.842 245.333C348.09 245.333 346.549 244.951 345.217 244.186C343.909 243.421 342.923 242.447 342.257 241.263V245H338.89V217.62H342.257V228.498ZM356.021 234.788C356.021 233.259 355.712 231.927 355.096 230.792C354.479 229.657 353.64 228.794 352.58 228.202C351.544 227.61 350.397 227.314 349.139 227.314C347.905 227.314 346.758 227.622 345.698 228.239C344.662 228.831 343.823 229.707 343.182 230.866C342.565 232.001 342.257 233.32 342.257 234.825C342.257 236.354 342.565 237.699 343.182 238.858C343.823 239.993 344.662 240.868 345.698 241.485C346.758 242.077 347.905 242.373 349.139 242.373C350.397 242.373 351.544 242.077 352.58 241.485C353.64 240.868 354.479 239.993 355.096 238.858C355.712 237.699 356.021 236.342 356.021 234.788Z" fill="white"/>
<path d="M25.3091 25V11.9611H34.751V14.5839H28.3627V17.3752H34.5262V19.9793H28.3627V25H25.3091ZM42.845 25H39.7913V11.9611H42.845V25ZM57.7505 22.3585V25H48.3461V11.9611H51.3997V22.3585H57.7505ZM65.476 25H62.5722V11.9611H66.0005L69.7099 18.0684L73.3068 11.9611H76.7164V25H73.8126V16.1388L69.6349 23.0704L65.476 16.1763V25ZM86.9904 25.2997C85.398 25.2997 84.1054 24.9438 83.1499 24.2132C82.1945 23.4825 81.5763 22.4709 81.2953 21.1783H84.3114C84.4426 21.6279 84.7423 22.0026 85.2107 22.2836C85.679 22.5646 86.2598 22.7144 86.9529 22.7144C87.6086 22.7144 88.1332 22.602 88.5266 22.3585C88.92 22.115 89.1261 21.7965 89.1261 21.3656C89.1261 21.1033 89.0699 20.8785 88.9575 20.6912C88.8264 20.5038 88.6015 20.3352 88.2643 20.1854C87.9084 20.0542 87.4026 19.9231 86.7094 19.8107L85.3231 19.5671C84.1241 19.3611 83.2249 18.9489 82.6254 18.3682C82.0072 17.7874 81.7074 16.9444 81.7074 15.8391C81.7074 14.9773 81.9322 14.2279 82.3818 13.6097C82.8315 12.9915 83.4497 12.5044 84.2178 12.1672C84.9859 11.83 85.8476 11.6614 86.8031 11.6614C88.2456 11.6614 89.4258 11.9986 90.3625 12.673C91.2992 13.3474 91.8613 14.3216 92.0673 15.5768H89.0512C88.9388 15.1459 88.6952 14.8274 88.3393 14.5839C87.9646 14.3591 87.4588 14.2467 86.8405 14.2467C86.1849 14.2467 85.679 14.3591 85.3231 14.6026C84.9484 14.8462 84.7611 15.1646 84.7611 15.558C84.7611 15.914 84.9109 16.2137 85.2107 16.4198C85.5104 16.6259 86.1099 16.8132 87.0092 16.9818L88.3767 17.2066C90.9246 17.6375 92.1985 18.9302 92.1985 21.0471C92.1985 21.9651 91.9737 22.7332 91.5428 23.3701C91.0932 24.0071 90.4749 24.4942 89.7069 24.8127C88.92 25.1311 88.0208 25.2997 86.9904 25.2997Z" fill="white" fill-opacity="0.7"/>
<path d="M15.3091 2.66187C15.2877 11.7465 15.2663 20.8327 15.2449 29.9173C13.9268 30.0883 12.6088 30.2686 11.2922 30.4581C11.2999 26.6369 11.306 22.8142 11.3136 18.9929C9.52461 19.1439 7.73558 19.3042 5.94962 19.4737C5.94656 23.4074 5.94197 27.3426 5.93891 31.2763C4.62543 31.4889 3.31195 31.7108 2 31.9419V2.66187H5.96491C5.96185 6.37985 5.95879 10.0963 5.9542 13.8143C7.74323 13.7018 9.53378 13.5955 11.3243 13.4953C11.3305 9.88365 11.3381 6.27353 11.3442 2.66187H15.3091Z" fill="#E50914"/>
</svg>
