<?xml version="1.0" encoding="UTF-8"?>
<svg id="Ebene_2" data-name="Ebene 2" xmlns="http://www.w3.org/2000/svg" viewBox="0 0 677.36 190.04">
  <defs>
    <style>
      .cls-1 {
        fill: #fff;
        stroke-width: 0px;
      }
    </style>
  </defs>
  <g id="Ebene_1-2" data-name="Ebene 1">
    <g>
      <path class="cls-1" d="M87.05,0c-.14,58.96-.28,117.93-.42,176.89-8.62,1.11-17.24,2.28-25.85,3.51.05-24.8.09-49.61.14-74.41-11.7.98-23.4,2.02-35.08,3.12-.02,25.53-.05,51.07-.07,76.6-8.59,1.38-17.18,2.82-25.76,4.32V0h25.93c-.02,24.13-.04,48.25-.07,72.38,11.7-.73,23.41-1.42,35.12-2.07.04-23.44.09-46.87.13-70.31h25.93Z"/>
      <path class="cls-1" d="M171.84,0c11.6,55.94,23.22,110.88,34.87,165.13-9.48.64-18.96,1.34-28.43,2.12-2.29-11.29-4.57-22.61-6.86-33.97-12.16.82-24.31,1.74-36.46,2.74-2.39,11.95-4.78,23.95-7.16,36.01-7.71.83-15.42,1.71-23.13,2.63,12.18-59.66,24.39-117.76,36.59-174.65h30.57ZM141.39,104c7.96-.49,15.93-.95,23.89-1.38-3.89-19.48-7.78-39.08-11.67-58.8-4.07,19.92-8.15,39.97-12.22,60.18Z"/>
      <path class="cls-1" d="M251.95,0l-.14,76.41c11.85-25.71,23.68-51.13,35.49-76.41h25.28c-9.04,19.15-18.09,38.33-27.15,57.63,11.25,34.49,22.54,68.81,33.84,103.16-9.73.1-19.46.26-29.19.5-7.5-23.16-14.99-46.36-22.46-69.66-5.3,11.18-10.6,22.4-15.91,33.69-.02,12.43-.05,24.86-.07,37.29-8.67.38-17.34.82-26,1.32.13-54.65.25-109.3.38-163.95h25.93Z"/>
      <path class="cls-1" d="M419.66,32.12c-17.6-.14-35.21-.24-52.81-.29,0,12.02.02,24.05.02,36.07,13.92.08,27.85.23,41.77.44.02,10.08.03,20.17.05,30.25-13.93-.3-27.86-.51-41.8-.64.01,20.98.03,41.97.04,62.95-9.17-.13-18.35-.2-27.52-.2,0-53.57,0-107.13,0-160.7h80.19c.02,10.71.04,21.41.06,32.12Z"/>
      <path class="cls-1" d="M467.02,132.28c14.97.79,29.94,1.71,44.9,2.77.03,11.1.06,22.2.09,33.3-23.89-2.11-47.8-3.78-71.74-5.02-.12-54.44-.23-108.88-.35-163.32h26.76c.11,44.09.22,88.18.33,132.28Z"/>
      <path class="cls-1" d="M558.18,0c.16,57.67.32,115.35.48,173.02-8.77-.99-17.55-1.91-26.33-2.78-.16-56.75-.33-113.5-.49-170.24h26.35Z"/>
      <path class="cls-1" d="M673.31,0c-10.26,29.31-20.49,57.79-30.69,85.58,11.63,33.75,23.21,68.51,34.74,104.45-10.11-1.76-20.23-3.45-30.37-5.06-7.52-23.56-15.06-46.64-22.62-69.3-7.49,21.25-14.96,42.13-22.44,62.69-8.32-1.12-16.64-2.19-24.97-3.2,11.54-29.71,23.09-60.07,34.65-91.24-10.36-28.65-20.74-56.58-31.13-83.92h30.76c6.12,18.19,12.24,36.64,18.35,55.37,6.36-18.17,12.72-36.62,19.1-55.37h24.63Z"/>
    </g>
  </g>
</svg>